<?xml version="1.0" encoding="UTF-8"?>
<svg width="92px" height="94px" viewBox="0 0 92 94" version="1.1" xmlns="http://www.w3.org/2000/svg" xmlns:xlink="http://www.w3.org/1999/xlink">
    <!-- Generator: Sketch 43.1 (39012) - http://www.bohemiancoding.com/sketch -->
    <title>sad</title>
    <desc>Created with Sketch.</desc>
    <defs></defs>
    <g id="Page-1" stroke="none" stroke-width="1" fill="none" fill-rule="evenodd" opacity="0.3">
        <g id="sad" fill-rule="nonzero" fill="#000000">
            <path d="M46.000002,0.99998 C20.630502,0.99998 2e-06,21.63058 2e-06,47.00002 C2e-06,72.36952 20.630502,93.00002 46.000002,93.00002 C71.369498,93.00002 91.999998,72.36952 91.999998,47.00002 C91.999998,21.63058 71.369498,0.99998 46.000002,0.99998 Z M46.000002,6.99998 C68.126898,6.99998 85.999998,24.87318 85.999998,47.00002 C85.999998,69.12692 68.126898,87.00002 46.000002,87.00002 C23.873102,87.00002 6.000002,69.12692 6.000002,47.00002 C6.000002,24.87318 23.873102,6.99998 46.000002,6.99998 Z M30.000002,26.99998 C26.133902,26.99998 23.000002,30.13402 23.000002,34.00002 C23.000002,37.86602 26.133902,41.00002 30.000002,41.00002 C33.866002,41.00002 37.000002,37.86602 37.000002,34.00002 C37.000002,30.13402 33.866002,26.99998 30.000002,26.99998 Z M62.000002,26.99998 C58.133902,26.99998 55.000002,30.13402 55.000002,34.00002 C55.000002,37.86602 58.133902,41.00002 62.000002,41.00002 C65.866002,41.00002 68.999998,37.86602 68.999998,34.00002 C68.999998,30.13402 65.866002,26.99998 62.000002,26.99998 Z M46.000002,52.00002 C35.846502,52.00002 26.862602,57.29082 21.500002,65.31252 C20.898783,66.2056749 20.820867,67.3520819 21.2957083,68.3183717 C21.7705495,69.2846614 22.7257034,69.923411 23.8000987,69.9931577 C24.8744941,70.0629045 25.9042149,69.5530075 26.500002,68.65622 C30.831202,62.17732 37.931702,58.00002 46.000002,58.00002 C54.068302,58.00002 61.168802,62.17732 65.500002,68.65622 C66.0957008,69.5532184 67.1254972,70.0633036 68.2000232,69.9936116 C69.2745492,69.9239196 70.2298286,69.2850856 70.7046684,68.3186539 C71.1795082,67.3522221 71.1014463,66.2056735 70.499998,65.31252 C65.137402,57.29082 56.153502,52.00002 46.000002,52.00002 L46.000002,52.00002 Z" id="Shape"></path>
        </g>
    </g>
</svg>